<svg xmlns="http://www.w3.org/2000/svg" width="28" height="28" viewBox="0 0 72 72"
    fill="none">
    <path
      d="M17.5822 33.5652C17.5822 33.5652 36.2102 25.7194 42.6707 22.9567C45.1473 21.8518 53.546 18.3155 53.546 18.3155C53.546 18.3155 57.4224 16.7685 57.0993 20.5256C56.9916 22.0728 56.1302 27.4874 55.2688 33.3442C53.9767 41.6322 52.5769 50.6935 52.5769 50.6935C52.5769 50.6935 52.3615 53.2352 50.5311 53.6772C48.7006 54.1192 45.6856 52.1302 45.1473 51.6881C44.7165 51.3566 37.0715 46.3838 34.272 43.9527C33.5182 43.2897 32.6569 41.9637 34.3796 40.4166C38.256 36.7699 42.886 32.2392 45.6856 29.3661C46.9778 28.04 48.2698 24.9459 42.886 28.703C35.2411 34.1178 27.7038 39.201 27.7038 39.201C27.7038 39.201 25.9809 40.306 22.7507 39.3115C19.5203 38.317 15.7516 36.9909 15.7516 36.9909C15.7516 36.9909 13.1675 35.3334 17.5822 33.5652Z"
      fill="#fff" />
    </svg>